<svg xmlns="http://www.w3.org/2000/svg" height="24" viewBox="0 96 960 960" width="24"><path d="M264.914 912q-25.929 0-43.729-17.8-17.801-17.801-17.801-43.696V403.807h36.923v446.655q0 9.231 7.693 16.923 7.692 7.692 16.923 7.692h327.385V912H264.914Zm113.709-113.846q-25.791 0-43.592-17.801-17.8-17.8-17.8-43.585V310.617q0-25.786 17.8-43.586 17.801-17.801 43.592-17.801h307.87q25.791 0 43.591 17.801 17.801 17.8 17.801 43.586v426.151q0 25.785-17.801 43.585-17.8 17.801-43.591 17.801h-307.87Zm.146-36.923h307.577q9.231 0 16.923-7.693 7.693-7.692 7.693-16.923V310.769q0-9.231-7.693-16.923-7.692-7.692-16.923-7.692H378.769q-9.231 0-16.923 7.692-7.692 7.692-7.692 16.923v425.846q0 9.231 7.692 16.923 7.692 7.693 16.923 7.693Zm-24.615 0V286.154v475.077Z"/></svg>