<svg xmlns="http://www.w3.org/2000/svg" height="24" viewBox="0 96 960 960" width="24"><path d="M478.236 890.462q-119.629 0-208.49-78.039-88.862-78.038-103.092-197.038h37.384q15.924 102.5 92.969 170.327 77.046 67.826 181.13 67.826 115.978 0 196.863-80.894 80.885-80.895 80.885-196.694 0-115.798-80.963-196.643t-197.191-80.845q-61.094 0-114.855 25.673t-94.53 70.44h97.385v36.81H206.346V272h36.923v94.923q45.769-49.692 106.295-77.539 60.527-27.846 128.137-27.846 65.338 0 122.622 24.776 57.284 24.775 100.019 67.365 42.735 42.59 67.601 99.751 24.865 57.162 24.865 122.52t-24.865 122.569q-24.866 57.212-67.558 99.904-42.693 42.693-99.94 67.366-57.248 24.673-122.209 24.673Zm127.649-163.385-142.77-143.304V379.077h36.924v189.231l132.307 132.307-26.461 26.462Z"/></svg>