<svg width="17" height="20" viewBox="0 0 17 20" fill="none" xmlns="http://www.w3.org/2000/svg">
<path d="M14.6666 8.33332V5.66666C14.6666 4.26653 14.6666 3.56646 14.3942 3.03168C14.1545 2.56128 13.772 2.17882 13.3016 1.93914C12.7668 1.66666 12.0668 1.66666 10.6666 1.66666H5.33331C3.93318 1.66666 3.23312 1.66666 2.69834 1.93914C2.22793 2.17882 1.84548 2.56128 1.6058 3.03168C1.33331 3.56646 1.33331 4.26653 1.33331 5.66666V14.3333C1.33331 15.7335 1.33331 16.4335 1.6058 16.9683C1.84548 17.4387 2.22793 17.8212 2.69834 18.0608C3.23312 18.3333 3.93318 18.3333 5.33331 18.3333H7.99998M8.41665 9.16666H4.66665M5.49998 12.5H4.66665M11.3333 5.83332H4.66665M12.1644 12.3588C11.4979 11.6013 10.3866 11.3976 9.55155 12.0912C8.71653 12.7848 8.59897 13.9446 9.25471 14.7649C9.91046 15.5853 12.1644 17.5 12.1644 17.5C12.1644 17.5 14.4183 15.5853 15.074 14.7649C15.7298 13.9446 15.6266 12.7775 14.7772 12.0912C13.9278 11.4049 12.8308 11.6013 12.1644 12.3588Z" stroke="#2200A5" stroke-width="1.66667" stroke-linecap="round" stroke-linejoin="round"/>
</svg>
