<svg width="16" height="20" viewBox="0 0 16 20" fill="none" xmlns="http://www.w3.org/2000/svg">
<path d="M9.66665 1.89122V5.33334C9.66665 5.80005 9.66665 6.0334 9.75747 6.21166C9.83737 6.36846 9.96485 6.49595 10.1217 6.57584C10.2999 6.66667 10.5333 6.66667 11 6.66667H14.4421M14.6666 8.32352V14.3333C14.6666 15.7335 14.6666 16.4335 14.3942 16.9683C14.1545 17.4387 13.772 17.8212 13.3016 18.0609C12.7668 18.3333 12.0668 18.3333 10.6666 18.3333H5.33331C3.93318 18.3333 3.23312 18.3333 2.69834 18.0609C2.22793 17.8212 1.84548 17.4387 1.6058 16.9683C1.33331 16.4335 1.33331 15.7335 1.33331 14.3333V5.66667C1.33331 4.26654 1.33331 3.56647 1.6058 3.03169C1.84548 2.56129 2.22793 2.17884 2.69834 1.93915C3.23312 1.66667 3.93318 1.66667 5.33331 1.66667H8.00979C8.62127 1.66667 8.92701 1.66667 9.21473 1.73574C9.46982 1.79698 9.71368 1.898 9.93736 2.03507C10.1897 2.18967 10.4058 2.40586 10.8382 2.83824L13.4951 5.49509C13.9275 5.92747 14.1436 6.14366 14.2982 6.39596C14.4353 6.61964 14.5363 6.8635 14.5976 7.11859C14.6666 7.40631 14.6666 7.71205 14.6666 8.32352Z" stroke="#2200A5" stroke-width="1.66667" stroke-linecap="round" stroke-linejoin="round"/>
</svg>
