<svg width="20" height="21" viewBox="0 0 20 21" fill="none" xmlns="http://www.w3.org/2000/svg">
<path d="M9 2.60907H5.8C4.11984 2.60907 3.27976 2.60907 2.63803 2.93605C2.07354 3.22367 1.6146 3.68261 1.32698 4.2471C1 4.88883 1 5.72891 1 7.40907V14.8091C1 16.4892 1 17.3293 1.32698 17.971C1.6146 18.5355 2.07354 18.9945 2.63803 19.2821C3.27976 19.6091 4.11984 19.6091 5.8 19.6091H13.2C14.8802 19.6091 15.7202 19.6091 16.362 19.2821C16.9265 18.9945 17.3854 18.5355 17.673 17.971C18 17.3293 18 16.4892 18 14.8091V11.6091M18.1213 2.48775C19.2929 3.65932 19.2929 5.55882 18.1213 6.73039C16.9497 7.90196 15.0503 7.90196 13.8787 6.73039C12.7071 5.55882 12.7071 3.65932 13.8787 2.48775C15.0503 1.31618 16.9497 1.31618 18.1213 2.48775Z" stroke="#2200A5" stroke-width="2" stroke-linecap="round" stroke-linejoin="round"/>
</svg>
