<svg width="66" height="66" viewBox="0 0 66 66" fill="none" xmlns="http://www.w3.org/2000/svg">
<rect x="5" y="5" width="56" height="56" rx="28" fill="#B4DBFD"/>
<path d="M21.333 27.1667L30.8587 33.8347C31.6301 34.3747 32.0158 34.6446 32.4353 34.7492C32.8059 34.8416 33.1935 34.8416 33.564 34.7492C33.9836 34.6446 34.3692 34.3747 35.1406 33.8347L44.6663 27.1667M26.933 42.3334H39.0663C41.0265 42.3334 42.0066 42.3334 42.7553 41.9519C43.4139 41.6163 43.9493 41.0809 44.2849 40.4223C44.6663 39.6736 44.6663 38.6935 44.6663 36.7334V29.2667C44.6663 27.3065 44.6663 26.3264 44.2849 25.5777C43.9493 24.9192 43.4139 24.3837 42.7553 24.0482C42.0066 23.6667 41.0265 23.6667 39.0663 23.6667H26.933C24.9728 23.6667 23.9927 23.6667 23.244 24.0482C22.5855 24.3837 22.05 24.9192 21.7145 25.5777C21.333 26.3264 21.333 27.3065 21.333 29.2667V36.7334C21.333 38.6935 21.333 39.6736 21.7145 40.4223C22.05 41.0809 22.5855 41.6163 23.244 41.9519C23.9927 42.3334 24.9728 42.3334 26.933 42.3334Z" stroke="#0E65B0" stroke-width="2" stroke-linecap="round" stroke-linejoin="round"/>
<rect x="5" y="5" width="56" height="56" rx="28" stroke="#E4F2FF" stroke-width="10"/>
</svg>
