<svg width="24" height="25" viewBox="0 0 24 25" fill="none" xmlns="http://www.w3.org/2000/svg">
<path d="M7 9.10901H12M7 12.609H15M9.68375 18.609H16.2C17.8802 18.609 18.7202 18.609 19.362 18.282C19.9265 17.9944 20.3854 17.5355 20.673 16.971C21 16.3292 21 15.4892 21 13.809V8.40901C21 6.72885 21 5.88877 20.673 5.24704C20.3854 4.68255 19.9265 4.22361 19.362 3.93599C18.7202 3.60901 17.8802 3.60901 16.2 3.60901H7.8C6.11984 3.60901 5.27976 3.60901 4.63803 3.93599C4.07354 4.22361 3.6146 4.68255 3.32698 5.24704C3 5.88877 3 6.72885 3 8.40901V20.9445C3 21.4774 3 21.7438 3.10923 21.8806C3.20422 21.9996 3.34827 22.0689 3.50054 22.0687C3.67563 22.0685 3.88367 21.9021 4.29976 21.5692L6.68521 19.6608C7.17252 19.271 7.41617 19.0761 7.68749 18.9375C7.9282 18.8145 8.18443 18.7246 8.44921 18.6703C8.74767 18.609 9.0597 18.609 9.68375 18.609Z" stroke="#667085" stroke-width="2" stroke-linecap="round" stroke-linejoin="round"/>
</svg>
