<svg width="20" height="17" viewBox="0 0 20 17" fill="none" xmlns="http://www.w3.org/2000/svg">
<path d="M6.2918 16.7341C13.8371 16.7341 17.9652 10.4814 17.9652 5.06068C17.9652 4.8849 17.9613 4.70521 17.9535 4.52943C18.7566 3.94868 19.4496 3.22934 20 2.40521C19.2521 2.73796 18.458 2.95528 17.6449 3.04974C18.5011 2.53655 19.1421 1.73036 19.4492 0.780603C18.6438 1.25793 17.763 1.59464 16.8445 1.77631C16.2257 1.11876 15.4075 0.683394 14.5164 0.537507C13.6253 0.391619 12.711 0.54334 11.9148 0.969211C11.1186 1.39508 10.4848 2.07139 10.1115 2.89356C9.73825 3.71573 9.64619 4.63798 9.84961 5.51771C8.21874 5.43587 6.62328 5.01222 5.16665 4.27421C3.71002 3.53621 2.42474 2.50033 1.39414 1.23373C0.870333 2.13683 0.710047 3.2055 0.945859 4.22254C1.18167 5.23958 1.79589 6.12867 2.66367 6.70912C2.01219 6.68844 1.37498 6.51303 0.804688 6.1974V6.24818C0.804104 7.19592 1.13175 8.11462 1.73192 8.84811C2.3321 9.58159 3.16777 10.0846 4.09687 10.2716C3.49338 10.4367 2.85999 10.4608 2.2457 10.3419C2.50788 11.157 3.01798 11.8699 3.70481 12.3811C4.39164 12.8923 5.22093 13.1763 6.07695 13.1935C4.62369 14.3351 2.82848 14.9542 0.980469 14.9513C0.652739 14.9508 0.325333 14.9307 0 14.8912C1.87738 16.0956 4.06128 16.7353 6.2918 16.7341Z" fill="#98A2B3"/>
</svg>
