<svg width="20" height="21" viewBox="0 0 20 21" fill="none" xmlns="http://www.w3.org/2000/svg">
<path d="M9 2.60913H5.8C4.11984 2.60913 3.27976 2.60913 2.63803 2.93611C2.07354 3.22373 1.6146 3.68267 1.32698 4.24716C1 4.88889 1 5.72897 1 7.40913V14.8091C1 16.4893 1 17.3294 1.32698 17.9711C1.6146 18.5356 2.07354 18.9945 2.63803 19.2822C3.27976 19.6091 4.11984 19.6091 5.8 19.6091H13.2C14.8802 19.6091 15.7202 19.6091 16.362 19.2822C16.9265 18.9945 17.3854 18.5356 17.673 17.9711C18 17.3294 18 16.4893 18 14.8091V11.6091M18.1213 2.48781C19.2929 3.65938 19.2929 5.55888 18.1213 6.73045C16.9497 7.90202 15.0503 7.90202 13.8787 6.73045C12.7071 5.55888 12.7071 3.65938 13.8787 2.48781C15.0503 1.31624 16.9497 1.31624 18.1213 2.48781Z" stroke="#667085" stroke-width="2" stroke-linecap="round" stroke-linejoin="round"/>
</svg>
