<svg width="26" height="22" viewBox="0 0 26 22" fill="none" xmlns="http://www.w3.org/2000/svg">
<path d="M1.33334 5.16669L10.8591 11.8347C11.6304 12.3747 12.0161 12.6446 12.4357 12.7492C12.8062 12.8416 13.1938 12.8416 13.5644 12.7492C13.9839 12.6446 14.3696 12.3747 15.1409 11.8347L24.6667 5.16669M6.93334 20.3334H19.0667C21.0269 20.3334 22.007 20.3334 22.7556 19.9519C23.4142 19.6163 23.9496 19.0809 24.2852 18.4223C24.6667 17.6736 24.6667 16.6935 24.6667 14.7334V7.26669C24.6667 5.3065 24.6667 4.32641 24.2852 3.57772C23.9496 2.91915 23.4142 2.38372 22.7556 2.04816C22.007 1.66669 21.0269 1.66669 19.0667 1.66669H6.93334C4.97316 1.66669 3.99307 1.66669 3.24438 2.04816C2.58581 2.38372 2.05038 2.91915 1.71482 3.57772C1.33334 4.32641 1.33334 5.3065 1.33334 7.26669V14.7334C1.33334 16.6935 1.33334 17.6736 1.71482 18.4223C2.05038 19.0809 2.58581 19.6163 3.24438 19.9519C3.99307 20.3334 4.97316 20.3334 6.93334 20.3334Z" stroke="#2200A5" stroke-width="2" stroke-linecap="round" stroke-linejoin="round"/>
</svg>
