<svg xmlns="http://www.w3.org/2000/svg" height="24" viewBox="0 96 960 960" width="24"><path d="M480 843.693q-16 0-27.385-11.385-11.384-11.385-11.384-27.385t11.384-27.385Q464 766.154 480 766.154t27.385 11.384q11.384 11.385 11.384 27.385t-11.384 27.385Q496 843.693 480 843.693Zm0-228.924q-16 0-27.385-11.384Q441.231 592 441.231 576t11.384-27.385Q464 537.231 480 537.231t27.385 11.384Q518.769 560 518.769 576t-11.384 27.385Q496 614.769 480 614.769Zm0-228.923q-16 0-27.385-11.384-11.384-11.385-11.384-27.385t11.384-27.385Q464 308.307 480 308.307t27.385 11.385q11.384 11.385 11.384 27.385t-11.384 27.385Q496 385.846 480 385.846Z"/></svg>