<svg width="12" height="16" viewBox="0 0 12 16" fill="none" xmlns="http://www.w3.org/2000/svg">
<path d="M7.33332 1.51301V4.26671C7.33332 4.64008 7.33332 4.82676 7.40599 4.96937C7.4699 5.09481 7.57189 5.1968 7.69733 5.26071C7.83994 5.33337 8.02662 5.33337 8.39999 5.33337H11.1537M11.3333 6.65886V11.4667C11.3333 12.5868 11.3333 13.1469 11.1153 13.5747C10.9236 13.951 10.6176 14.257 10.2413 14.4487C9.81348 14.6667 9.25343 14.6667 8.13332 14.6667H3.86666C2.74655 14.6667 2.1865 14.6667 1.75868 14.4487C1.38235 14.257 1.07639 13.951 0.884643 13.5747C0.666656 13.1469 0.666656 12.5868 0.666656 11.4667V4.53337C0.666656 3.41327 0.666656 2.85322 0.884643 2.42539C1.07639 2.04907 1.38235 1.74311 1.75868 1.55136C2.1865 1.33337 2.74655 1.33337 3.86666 1.33337H6.00784C6.49702 1.33337 6.74161 1.33337 6.97179 1.38863C7.17586 1.43763 7.37095 1.51844 7.54989 1.62809C7.75173 1.75178 7.92468 1.92473 8.27058 2.27063L10.3961 4.39612C10.742 4.74202 10.9149 4.91497 11.0386 5.1168C11.1483 5.29575 11.2291 5.49084 11.2781 5.69491C11.3333 5.92509 11.3333 6.16968 11.3333 6.65886Z" stroke="#2200A5" stroke-width="1.33333" stroke-linecap="round" stroke-linejoin="round"/>
</svg>
