<svg width="18" height="18" viewBox="0 0 18 18" fill="none" xmlns="http://www.w3.org/2000/svg">
<path d="M7.74964 10.25L16.4996 1.50004M7.85596 10.5234L10.0461 16.1551C10.239 16.6512 10.3355 16.8993 10.4745 16.9717C10.595 17.0345 10.7385 17.0346 10.8591 16.9719C10.9982 16.8997 11.0949 16.6517 11.2884 16.1558L16.7804 2.08271C16.9551 1.63506 17.0424 1.41123 16.9946 1.26821C16.9532 1.144 16.8557 1.04653 16.7315 1.00503C16.5885 0.957253 16.3646 1.0446 15.917 1.21929L1.84386 6.71124C1.34796 6.90476 1.10001 7.00152 1.02775 7.14061C0.965115 7.26118 0.9652 7.40472 1.02798 7.52522C1.1004 7.66423 1.34846 7.76069 1.84458 7.95363L7.47625 10.1437C7.57696 10.1829 7.62731 10.2025 7.66972 10.2327C7.7073 10.2595 7.74016 10.2924 7.76697 10.33C7.79721 10.3724 7.8168 10.4227 7.85596 10.5234Z" stroke="#2200A5" stroke-width="1.66667" stroke-linecap="round" stroke-linejoin="round"/>
</svg>
