<svg width="20" height="20" viewBox="0 0 20 20" fill="none" xmlns="http://www.w3.org/2000/svg">
    <path d="M9.99999 12.4998C11.3807 12.4998 12.5 11.3805 12.5 9.99984C12.5 8.61913 11.3807 7.49984 9.99999 7.49984C8.61928 7.49984 7.49999 8.61913 7.49999 9.99984C7.49999 11.3805 8.61928 12.4998 9.99999 12.4998Z" stroke="#2200A5" stroke-width="1.66667" stroke-linecap="round" stroke-linejoin="round"/>
    <path d="M15.6061 12.2726C15.5052 12.5011 15.4751 12.7545 15.5197 13.0003C15.5642 13.246 15.6814 13.4728 15.8561 13.6514L15.9015 13.6968C16.0424 13.8375 16.1541 14.0046 16.2304 14.1886C16.3066 14.3725 16.3459 14.5697 16.3459 14.7688C16.3459 14.9679 16.3066 15.1651 16.2304 15.349C16.1541 15.5329 16.0424 15.7 15.9015 15.8407C15.7608 15.9816 15.5937 16.0934 15.4097 16.1696C15.2258 16.2459 15.0287 16.2851 14.8295 16.2851C14.6304 16.2851 14.4333 16.2459 14.2493 16.1696C14.0654 16.0934 13.8983 15.9816 13.7576 15.8407L13.7121 15.7953C13.5336 15.6206 13.3068 15.5035 13.061 15.4589C12.8153 15.4144 12.5618 15.4444 12.3333 15.5453C12.1093 15.6413 11.9182 15.8008 11.7836 16.004C11.649 16.2073 11.5767 16.4455 11.5757 16.6892V16.818C11.5757 17.2199 11.4161 17.6052 11.132 17.8894C10.8478 18.1735 10.4624 18.3332 10.0606 18.3332C9.65875 18.3332 9.27337 18.1735 8.98922 17.8894C8.70508 17.6052 8.54544 17.2199 8.54544 16.818V16.7498C8.53958 16.4991 8.45841 16.2559 8.3125 16.0519C8.16658 15.8479 7.96267 15.6925 7.72726 15.6059C7.49877 15.5051 7.2453 15.475 6.99954 15.5195C6.75379 15.5641 6.52702 15.6812 6.34847 15.8559L6.30302 15.9014C6.1623 16.0422 5.9952 16.154 5.81126 16.2302C5.62733 16.3065 5.43016 16.3457 5.23105 16.3457C5.03194 16.3457 4.83477 16.3065 4.65084 16.2302C4.4669 16.154 4.2998 16.0422 4.15908 15.9014C4.01821 15.7606 3.90645 15.5935 3.8302 15.4096C3.75395 15.2257 3.71471 15.0285 3.71471 14.8294C3.71471 14.6303 3.75395 14.4331 3.8302 14.2492C3.90645 14.0652 4.01821 13.8981 4.15908 13.7574L4.20454 13.712C4.37918 13.5334 4.49634 13.3066 4.5409 13.0609C4.58546 12.8151 4.55538 12.5617 4.45454 12.3332C4.3585 12.1091 4.19905 11.918 3.9958 11.7834C3.79255 11.6488 3.55437 11.5766 3.3106 11.5756H3.18181C2.77996 11.5756 2.39458 11.416 2.11043 11.1318C1.82629 10.8477 1.66666 10.4623 1.66666 10.0604C1.66666 9.6586 1.82629 9.27322 2.11043 8.98907C2.39458 8.70492 2.77996 8.54529 3.18181 8.54529H3.24999C3.50074 8.53943 3.74393 8.45826 3.94794 8.31235C4.15195 8.16643 4.30735 7.96252 4.39393 7.72711C4.49477 7.49861 4.52486 7.24515 4.4803 6.99939C4.43574 6.75364 4.31858 6.52687 4.14393 6.34832L4.09847 6.30287C3.9576 6.16215 3.84585 5.99505 3.7696 5.81111C3.69335 5.62717 3.6541 5.43001 3.6541 5.2309C3.6541 5.03178 3.69335 4.83462 3.7696 4.65069C3.84585 4.46675 3.9576 4.29965 4.09847 4.15893C4.23919 4.01805 4.4063 3.9063 4.59023 3.83005C4.77417 3.7538 4.97133 3.71455 5.17044 3.71455C5.36956 3.71455 5.56672 3.7538 5.75066 3.83005C5.93459 3.9063 6.1017 4.01805 6.24241 4.15893L6.28787 4.20438C6.46641 4.37903 6.69318 4.49619 6.93894 4.54075C7.18469 4.58531 7.43816 4.55523 7.66666 4.45438H7.72726C7.95133 4.35835 8.14243 4.19889 8.27703 3.99564C8.41163 3.79239 8.48387 3.55422 8.48484 3.31044V3.18166C8.48484 2.77981 8.64447 2.39443 8.92862 2.11028C9.21276 1.82614 9.59815 1.6665 9.99999 1.6665C10.4018 1.6665 10.7872 1.82614 11.0714 2.11028C11.3555 2.39443 11.5151 2.77981 11.5151 3.18166V3.24984C11.5161 3.49362 11.5883 3.73179 11.723 3.93504C11.8576 4.13829 12.0487 4.29774 12.2727 4.39378C12.5012 4.49462 12.7547 4.5247 13.0004 4.48014C13.2462 4.43558 13.473 4.31843 13.6515 4.14378L13.697 4.09832C13.8377 3.95745 14.0048 3.84569 14.1887 3.76944C14.3727 3.69319 14.5698 3.65395 14.7689 3.65395C14.968 3.65395 15.1652 3.69319 15.3491 3.76944C15.5331 3.84569 15.7002 3.95745 15.8409 4.09832C15.9818 4.23904 16.0935 4.40614 16.1698 4.59008C16.246 4.77402 16.2853 4.97118 16.2853 5.17029C16.2853 5.36941 16.246 5.56657 16.1698 5.7505C16.0935 5.93444 15.9818 6.10154 15.8409 6.24226L15.7954 6.28772C15.6208 6.46626 15.5036 6.69303 15.4591 6.93879C15.4145 7.18454 15.4446 7.43801 15.5454 7.6665V7.72711C15.6415 7.95118 15.8009 8.14228 16.0042 8.27688C16.2074 8.41148 16.4456 8.48371 16.6894 8.48469H16.8182C17.22 8.48469 17.6054 8.64432 17.8895 8.92846C18.1737 9.21261 18.3333 9.59799 18.3333 9.99984C18.3333 10.4017 18.1737 10.7871 17.8895 11.0712C17.6054 11.3554 17.22 11.515 16.8182 11.515H16.75C16.5062 11.516 16.268 11.5882 16.0648 11.7228C15.8615 11.8574 15.7021 12.0485 15.6061 12.2726Z" stroke="#2200A5" stroke-width="1.66667" stroke-linecap="round" stroke-linejoin="round"/>
</svg>
