<svg width="18" height="17" viewBox="0 0 18 17" fill="none" xmlns="http://www.w3.org/2000/svg">
<path d="M8.4022 1.87775C8.59427 1.48864 8.69031 1.29408 8.82068 1.23192C8.93411 1.17784 9.0659 1.17784 9.17933 1.23192C9.3097 1.29408 9.40574 1.48864 9.59781 1.87775L11.42 5.56939C11.4767 5.68427 11.5051 5.74171 11.5465 5.7863C11.5832 5.82579 11.6272 5.85778 11.6761 5.88051C11.7313 5.90618 11.7947 5.91544 11.9214 5.93397L15.9975 6.52975C16.4267 6.59248 16.6413 6.62385 16.7406 6.72869C16.8271 6.8199 16.8677 6.94524 16.8512 7.0698C16.8323 7.21297 16.677 7.36431 16.3662 7.66698L13.4179 10.5387C13.326 10.6282 13.28 10.673 13.2503 10.7262C13.2241 10.7734 13.2072 10.8252 13.2008 10.8787C13.1934 10.9393 13.2043 11.0025 13.2259 11.1289L13.9216 15.1851C13.995 15.6129 14.0317 15.8268 13.9627 15.9537C13.9028 16.0642 13.7961 16.1416 13.6725 16.1646C13.5305 16.1909 13.3384 16.0899 12.9542 15.8878L9.3103 13.9715C9.19677 13.9118 9.14 13.882 9.08019 13.8702C9.02724 13.8598 8.97277 13.8598 8.91982 13.8702C8.86001 13.882 8.80324 13.9118 8.6897 13.9715L5.04576 15.8878C4.66159 16.0899 4.4695 16.1909 4.32747 16.1646C4.20389 16.1416 4.09726 16.0642 4.03727 15.9537C3.96832 15.8268 4.00501 15.6129 4.07839 15.1851L4.77406 11.1289C4.79575 11.0025 4.80659 10.9393 4.79926 10.8787C4.79276 10.8252 4.77592 10.7734 4.74966 10.7262C4.72001 10.673 4.67405 10.6282 4.58214 10.5387L1.63379 7.66697C1.32304 7.36431 1.16767 7.21297 1.14876 7.0698C1.13231 6.94524 1.17295 6.8199 1.25937 6.72869C1.35869 6.62385 1.5733 6.59248 2.00253 6.52975L6.07858 5.93397C6.20534 5.91544 6.26872 5.90618 6.32392 5.88051C6.37279 5.85778 6.41679 5.82579 6.45348 5.7863C6.49491 5.74171 6.52326 5.68427 6.57997 5.56939L8.4022 1.87775Z" stroke="#98A2B3" stroke-linecap="round" stroke-linejoin="round"/>
</svg>
