<svg width="18" height="17" viewBox="0 0 18 17" fill="none" xmlns="http://www.w3.org/2000/svg">
    <g clip-path="url(#clip0_1_2)">
        <path d="M17.8425 6.99124L13.8225 10.88L14.7675 16.3837C14.8508 16.8229 14.346 17.1445 13.9425 16.9362L9 14.3508V0.0212402C9.21 0.0212402 9.42 0.113324 9.51 0.304574L11.9925 5.29832L17.52 6.09166C17.982 6.16957 18.1523 6.68312 17.8425 6.99124V6.99124Z" fill="#ECEFF1"/>
        <path d="M9 0.0212402V14.3508L4.0575 16.9362C3.66075 17.1466 3.1485 16.8279 3.2325 16.3837L4.1775 10.88L0.1575 6.99124C-0.15225 6.68312 0.0172503 6.16957 0.48 6.09166L6.0075 5.29832L8.49 0.304574C8.58 0.113324 8.79 0.0212402 9 0.0212402V0.0212402Z" fill="#FFC107"/>
    </g>
    <defs>
        <clipPath id="clip0_1_2">
            <rect width="18" height="17" fill="white"/>
        </clipPath>
    </defs>
</svg>
