<svg width="4" height="16" viewBox="0 0 4 16" fill="none" xmlns="http://www.w3.org/2000/svg">
<path d="M2.00002 8.83331C2.46026 8.83331 2.83335 8.46022 2.83335 7.99998C2.83335 7.53974 2.46026 7.16665 2.00002 7.16665C1.53978 7.16665 1.16669 7.53974 1.16669 7.99998C1.16669 8.46022 1.53978 8.83331 2.00002 8.83331Z" stroke="#98A2B3" stroke-width="1.66667" stroke-linecap="round" stroke-linejoin="round"/>
<path d="M2.00002 2.99998C2.46026 2.99998 2.83335 2.62688 2.83335 2.16665C2.83335 1.70641 2.46026 1.33331 2.00002 1.33331C1.53978 1.33331 1.16669 1.70641 1.16669 2.16665C1.16669 2.62688 1.53978 2.99998 2.00002 2.99998Z" stroke="#98A2B3" stroke-width="1.66667" stroke-linecap="round" stroke-linejoin="round"/>
<path d="M2.00002 14.6666C2.46026 14.6666 2.83335 14.2935 2.83335 13.8333C2.83335 13.3731 2.46026 13 2.00002 13C1.53978 13 1.16669 13.3731 1.16669 13.8333C1.16669 14.2935 1.53978 14.6666 2.00002 14.6666Z" stroke="#98A2B3" stroke-width="1.66667" stroke-linecap="round" stroke-linejoin="round"/>
</svg>
