<svg width="18" height="18" viewBox="0 0 18 18" fill="none" xmlns="http://www.w3.org/2000/svg">
<path d="M13.8999 3.18783C14.0708 3.60128 14.399 3.92992 14.8122 4.1015L16.2611 4.70165C16.6746 4.87292 17.0031 5.20143 17.1743 5.61491C17.3456 6.0284 17.3456 6.49299 17.1743 6.90647L16.5746 8.3543C16.4033 8.76797 16.403 9.23303 16.5752 9.6465L17.1738 11.0939C17.2587 11.2987 17.3025 11.5182 17.3025 11.7399C17.3025 11.9616 17.2589 12.1811 17.174 12.386C17.0892 12.5908 16.9648 12.7769 16.808 12.9336C16.6513 13.0904 16.4651 13.2147 16.2603 13.2994L14.8124 13.8991C14.399 14.0701 14.0703 14.3983 13.8988 14.8114L13.2986 16.2603C13.1274 16.6738 12.7988 17.0023 12.3854 17.1736C11.9719 17.3449 11.5073 17.3449 11.0938 17.1736L9.64597 16.5739C9.23247 16.403 8.76805 16.4034 8.35481 16.5748L6.90594 17.1741C6.49268 17.345 6.0285 17.3449 5.61535 17.1737C5.2022 17.0026 4.87387 16.6745 4.70248 16.2614L4.10216 14.8121C3.93121 14.3987 3.60306 14.07 3.18986 13.8985L1.74099 13.2983C1.32769 13.1271 0.999271 12.7988 0.827937 12.3856C0.656603 11.9723 0.65637 11.5079 0.827291 11.0945L1.427 9.64669C1.59785 9.23319 1.5975 8.76877 1.42603 8.35553L0.827182 6.90562C0.742277 6.70083 0.698558 6.48131 0.698522 6.25961C0.698487 6.03792 0.742136 5.81839 0.826975 5.61357C0.911815 5.40874 1.03618 5.22265 1.19297 5.06591C1.34976 4.90917 1.53589 4.78486 1.74074 4.70009L3.18858 4.10038C3.60167 3.92957 3.93011 3.60184 4.10182 3.18912L4.70196 1.74024C4.87323 1.32676 5.20174 0.998247 5.61523 0.826976C6.02871 0.655705 6.4933 0.655705 6.90679 0.826976L8.35462 1.42669C8.76812 1.59754 9.23254 1.59719 9.64578 1.42572L11.0953 0.827905C11.5087 0.65673 11.9732 0.656765 12.3866 0.828003C12.8 0.99924 13.1285 1.32766 13.2998 1.74104L13.9001 3.19034L13.8999 3.18783Z" fill="#C1EA50"/>
</svg>
