<svg width="16" height="16" viewBox="0 0 16 16" fill="none" xmlns="http://www.w3.org/2000/svg">
<path d="M8.00001 14.6667V1.33337M4.66668 14.6667V11.3334M4.66668 4.66671V1.33337M11.3333 14.6667V11.3334M11.3333 4.66671V1.33337M1.33334 4.66671H14.6667M1.33334 11.3334H14.6667M14.6667 11.4667V4.53337C14.6667 3.41327 14.6667 2.85322 14.4487 2.42539C14.2569 2.04907 13.951 1.74311 13.5747 1.55136C13.1468 1.33337 12.5868 1.33337 11.4667 1.33337L4.53334 1.33337C3.41324 1.33337 2.85319 1.33337 2.42536 1.55136C2.04904 1.74311 1.74308 2.04907 1.55133 2.42539C1.33334 2.85322 1.33334 3.41327 1.33334 4.53337L1.33334 11.4667C1.33334 12.5868 1.33334 13.1469 1.55133 13.5747C1.74308 13.951 2.04904 14.257 2.42536 14.4487C2.85319 14.6667 3.41324 14.6667 4.53334 14.6667H11.4667C12.5868 14.6667 13.1468 14.6667 13.5747 14.4487C13.951 14.257 14.2569 13.951 14.4487 13.5747C14.6667 13.1469 14.6667 12.5868 14.6667 11.4667Z" stroke="#2200A5" stroke-width="1.33333" stroke-linecap="round" stroke-linejoin="round"/>
</svg>
