<svg width="22" height="23" viewBox="0 0 22 23" fill="none" xmlns="http://www.w3.org/2000/svg">
    <path d="M1 11.6091L10.6422 16.4302C10.7734 16.4958 10.839 16.5286 10.9078 16.5415C10.9687 16.5529 11.0313 16.5529 11.0922 16.5415C11.161 16.5286 11.2266 16.4958 11.3578 16.4302L21 11.6091M1 16.6091L10.6422 21.4302C10.7734 21.4958 10.839 21.5286 10.9078 21.5415C10.9687 21.5529 11.0313 21.5529 11.0922 21.5415C11.161 21.5286 11.2266 21.4958 11.3578 21.4302L21 16.6091M1 6.60907L10.6422 1.78796C10.7734 1.72237 10.839 1.68957 10.9078 1.67666C10.9687 1.66523 11.0313 1.66523 11.0922 1.67666C11.161 1.68957 11.2266 1.72237 11.3578 1.78796L21 6.60907L11.3578 11.4302C11.2266 11.4958 11.161 11.5286 11.0922 11.5415C11.0313 11.5529 10.9687 11.5529 10.9078 11.5415C10.839 11.5286 10.7734 11.4958 10.6422 11.4302L1 6.60907Z" stroke="#2200A5" stroke-width="2" stroke-linecap="round" stroke-linejoin="round"/>
</svg>
