<svg width="20" height="21" viewBox="0 0 20 21" fill="none" xmlns="http://www.w3.org/2000/svg">
    <path d="M6 13.6091V15.6091M10 9.60907V15.6091M14 5.60907V15.6091M5.8 19.6091H14.2C15.8802 19.6091 16.7202 19.6091 17.362 19.2821C17.9265 18.9945 18.3854 18.5355 18.673 17.971C19 17.3293 19 16.4892 19 14.8091V6.40907C19 4.72891 19 3.88883 18.673 3.2471C18.3854 2.68261 17.9265 2.22367 17.362 1.93605C16.7202 1.60907 15.8802 1.60907 14.2 1.60907H5.8C4.11984 1.60907 3.27976 1.60907 2.63803 1.93605C2.07354 2.22367 1.6146 2.68261 1.32698 3.2471C1 3.88883 1 4.72891 1 6.40907V14.8091C1 16.4892 1 17.3293 1.32698 17.971C1.6146 18.5355 2.07354 18.9945 2.63803 19.2821C3.27976 19.6091 4.11984 19.6091 5.8 19.6091Z" stroke="#667085" stroke-width="2" stroke-linecap="round" stroke-linejoin="round"/>
</svg>
