<svg width="20" height="22" viewBox="0 0 20 22" fill="none" xmlns="http://www.w3.org/2000/svg">
    <path d="M6 16.6091H14M9.0177 2.37307L2.23539 7.64819C1.78202 8.00082 1.55534 8.17713 1.39203 8.39793C1.24737 8.59351 1.1396 8.81385 1.07403 9.04812C1 9.31259 1 9.59977 1 10.1741V17.4091C1 18.5292 1 19.0892 1.21799 19.517C1.40973 19.8934 1.71569 20.1993 2.09202 20.3911C2.51984 20.6091 3.07989 20.6091 4.2 20.6091H15.8C16.9201 20.6091 17.4802 20.6091 17.908 20.3911C18.2843 20.1993 18.5903 19.8934 18.782 19.517C19 19.0892 19 18.5292 19 17.4091V10.1741C19 9.59977 19 9.31259 18.926 9.04812C18.8604 8.81385 18.7526 8.59351 18.608 8.39793C18.4447 8.17713 18.218 8.00082 17.7646 7.6482L10.9823 2.37307C10.631 2.09982 10.4553 1.96319 10.2613 1.91067C10.0902 1.86433 9.9098 1.86433 9.73865 1.91067C9.54468 1.96319 9.36902 2.09982 9.0177 2.37307Z" stroke="#2200A5" stroke-width="2" stroke-linecap="round" stroke-linejoin="round"/>
</svg>
