<svg width="22" height="23" viewBox="0 0 22 23" fill="none" xmlns="http://www.w3.org/2000/svg">
    <path d="M5 14.6091L7 16.6091L11.5 12.1091M7 7.60907V4.80907C7 3.68896 7 3.12891 7.21799 2.70109C7.40973 2.32476 7.71569 2.0188 8.09202 1.82706C8.51984 1.60907 9.07989 1.60907 10.2 1.60907H17.8C18.9201 1.60907 19.4802 1.60907 19.908 1.82706C20.2843 2.0188 20.5903 2.32476 20.782 2.70109C21 3.12891 21 3.68896 21 4.80907V12.4091C21 13.5292 21 14.0892 20.782 14.5171C20.5903 14.8934 20.2843 15.1993 19.908 15.3911C19.4802 15.6091 18.9201 15.6091 17.8 15.6091H15M4.2 21.6091H11.8C12.9201 21.6091 13.4802 21.6091 13.908 21.3911C14.2843 21.1993 14.5903 20.8934 14.782 20.5171C15 20.0892 15 19.5292 15 18.4091V10.8091C15 9.68896 15 9.12891 14.782 8.70109C14.5903 8.32476 14.2843 8.0188 13.908 7.82706C13.4802 7.60907 12.9201 7.60907 11.8 7.60907H4.2C3.0799 7.60907 2.51984 7.60907 2.09202 7.82706C1.71569 8.0188 1.40973 8.32476 1.21799 8.70109C1 9.12891 1 9.68896 1 10.8091V18.4091C1 19.5292 1 20.0892 1.21799 20.5171C1.40973 20.8934 1.71569 21.1993 2.09202 21.3911C2.51984 21.6091 3.07989 21.6091 4.2 21.6091Z" stroke="#667085" stroke-width="2" stroke-linecap="round" stroke-linejoin="round"/>
</svg>
